<?xml version="1.0" encoding="UTF-8" standalone="no"?>
<!-- Created with Inkscape (http://www.inkscape.org/) -->

<svg
   xmlns:dc="http://purl.org/dc/elements/1.1/"
   xmlns:cc="http://creativecommons.org/ns#"
   xmlns:rdf="http://www.w3.org/1999/02/22-rdf-syntax-ns#"
   xmlns:svg="http://www.w3.org/2000/svg"
   xmlns="http://www.w3.org/2000/svg"
   xmlns:xlink="http://www.w3.org/1999/xlink"
   xmlns:sodipodi="http://sodipodi.sourceforge.net/DTD/sodipodi-0.dtd"
   xmlns:inkscape="http://www.inkscape.org/namespaces/inkscape"
   width="120"
   height="750"
   viewBox="0 0 31.749998 198.4375"
   version="1.1"
   id="svg8"
   inkscape:version="0.92.0 r"
   sodipodi:docname="braceWithReturn.svg">
  <defs
     id="defs2" />
  <sodipodi:namedview
     id="base"
     pagecolor="#ffffff"
     bordercolor="#666666"
     borderopacity="1.0"
     inkscape:pageopacity="0.0"
     inkscape:pageshadow="2"
     inkscape:zoom="0.9899495"
     inkscape:cx="-215.83537"
     inkscape:cy="319.9215"
     inkscape:document-units="mm"
     inkscape:current-layer="layer1"
     showgrid="false"
     fit-margin-top="0"
     fit-margin-left="0"
     fit-margin-right="0"
     fit-margin-bottom="0"
     units="px"
     inkscape:window-width="1920"
     inkscape:window-height="1136"
     inkscape:window-x="1280"
     inkscape:window-y="27"
     inkscape:window-maximized="1"
     inkscape:snap-global="false" />
  <metadata
     id="metadata5">
    <rdf:RDF>
      <cc:Work
         rdf:about="">
        <dc:format>image/svg+xml</dc:format>
        <dc:type
           rdf:resource="http://purl.org/dc/dcmitype/StillImage" />
        <dc:title />
      </cc:Work>
    </rdf:RDF>
  </metadata>
  <g
     inkscape:label="Ebene 1"
     inkscape:groupmode="layer"
     id="layer1"
     transform="translate(-87.276967,-49.408377)">
    <g
       aria-label="}"
       style="color:#000000;font-style:normal;font-variant:normal;font-weight:normal;font-stretch:normal;font-size:82.05405426px;line-height:102.56756592px;font-family:'Linux Libertine';-inkscape-font-specification:'Linux Libertine';text-indent:0;text-align:start;text-decoration:none;text-decoration-line:none;letter-spacing:0px;word-spacing:0.04102698px;text-transform:none;writing-mode:lr-tb;direction:ltr;baseline-shift:baseline;text-anchor:start;display:inline;overflow:visible;visibility:visible;fill:#a0a0a0;fill-opacity:1;fill-rule:nonzero;stroke:none;stroke-width:4.10270262px;stroke-linecap:butt;stroke-linejoin:miter;stroke-opacity:1;marker:none;enable-background:accumulate"
       id="text4487"
       transform="translate(1.6036172,-12.828937)">
      <path
         d="m 105.49297,99.902994 q -4.18476,0.492326 -5.579678,5.333516 -1.394919,4.75913 -1.394919,12.55427 0,7.05665 -0.820541,10.42086 -0.82054,3.36422 -3.118054,4.51298 -2.215459,1.23081 -6.974594,1.23081 -0.328217,0 -0.328217,-0.49233 0,-0.49232 0.328217,-0.49232 3.118054,0 4.841189,-2.29752 1.723135,-2.21545 1.887243,-6.40021 0.164108,-10.0106 0.656433,-14.03124 0.492324,-4.10271 2.215459,-6.48228 1.723135,-2.46162 5.907892,-4.430914 -4.266811,-1.887243 -5.989946,-4.184757 -1.641081,-2.379567 -2.133405,-6.400216 -0.492325,-4.102703 -0.656433,-14.195351 -0.164108,-4.184757 -1.887243,-6.400217 -1.723135,-2.297513 -4.841189,-2.297513 -0.328217,0 -0.328217,-0.492324 0,-0.492325 0.328217,-0.492325 4.677081,0 6.89254,1.230811 2.21546,1.148757 3.118054,4.512973 0.902595,3.282162 0.902595,10.338811 0,7.713081 1.394919,12.55427 1.394918,4.841189 5.579678,5.333514 0.24616,0 0.24616,0.574378 0,0.492324 -0.24616,0.492324 z"
         style="font-style:normal;font-variant:normal;font-weight:300;font-stretch:normal;font-family:'Cormorant Garamond';-inkscape-font-specification:'Cormorant Garamond Light';fill:#a0a0a0;fill-opacity:1;stroke-width:4.10270262px"
         id="path4489"
         inkscape:connector-curvature="0" />
    </g>
    <path
       style="opacity:1;fill:none;fill-rule:evenodd;stroke:#a0a0a0;stroke-width:1.5;stroke-linecap:round;stroke-linejoin:round;stroke-miterlimit:4;stroke-dasharray:none;stroke-opacity:1"
       d="m 105.72643,86.539518 c 6.24661,0 7.10778,10.599535 7.10778,19.352602 v 20.98066"
       id="path4540"
       inkscape:connector-curvature="0"
       sodipodi:nodetypes="csc" />
    <path
       sodipodi:nodetypes="csc"
       inkscape:connector-curvature="0"
       id="path4542"
       d="m 101.24967,160.00134 c 10.32247,0 11.58454,-10.59953 11.58454,-19.3526 v -33.47551"
       style="opacity:1;fill:none;fill-rule:evenodd;stroke:#a0a0a0;stroke-width:1.5;stroke-linecap:round;stroke-linejoin:round;stroke-miterlimit:4;stroke-dasharray:none;stroke-opacity:1" />
    <use
       x="0"
       y="0"
       xlink:href="#path4542"
       id="use4548"
       transform="translate(8.4233091e-8,35.162266)"
       width="100%"
       height="100%"
       style="opacity:1" />
    <use
       x="0"
       y="0"
       xlink:href="#use4548"
       id="use4550"
       transform="translate(8.4233091e-8,34.682275)"
       width="100%"
       height="100%"
       style="opacity:1" />
    <g
       aria-label="â†"
       style="color:#000000;font-style:normal;font-variant:normal;font-weight:normal;font-stretch:normal;font-size:33.03251648px;line-height:41.2906456px;font-family:'Linux Libertine';-inkscape-font-specification:'Linux Libertine';text-indent:0;text-align:start;text-decoration:none;text-decoration-line:none;letter-spacing:0px;word-spacing:0.01651624px;text-transform:none;writing-mode:lr-tb;direction:ltr;baseline-shift:baseline;text-anchor:start;display:inline;overflow:visible;visibility:visible;fill:#a0a0a0;fill-opacity:1;fill-rule:nonzero;stroke:none;stroke-width:1.65162575px;stroke-linecap:butt;stroke-linejoin:miter;stroke-opacity:1;marker:none;enable-background:accumulate"
       id="text4510"
       transform="matrix(1.2807361,0,0,1,3.2335303,-9.7312501)">
      <path
         d="m 76.529607,168.98761 c 0.04404,0 0.07707,0.0771 0.0991,0.23123 0.02202,0.13213 0.03303,0.28628 0.03303,0.46245 0,0.1982 -0.02202,0.38539 -0.06607,0.56156 -0.02202,0.15415 -0.05505,0.23122 -0.0991,0.23122 l -4.829478,0 2.982151,5.3843 0.03303,0.0661 c 0,0.0661 -0.04404,0.12112 -0.13213,0.16516 -0.06607,0.0441 -0.121121,0.0441 -0.165163,0 l -7.927804,-6.11101 c -0.08809,-0.0881 -0.13213,-0.16516 -0.13213,-0.23123 0,-0.0661 0.04404,-0.14314 0.13213,-0.23123 l 7.927804,-6.14405 0.06606,-0.033 c 0.04404,0 0.08808,0.044 0.13213,0.13213 0.06607,0.0661 0.08809,0.11011 0.06606,0.13213 l -3.014333,5.3843 z"
         style="font-style:normal;font-variant:normal;font-weight:bold;font-stretch:normal;font-family:'Cormorant Garamond';-inkscape-font-specification:'Cormorant Garamond Bold';fill:#a0a0a0;fill-opacity:1;stroke-width:1.65162575px"
         id="path4512"
         inkscape:connector-curvature="0"
         sodipodi:nodetypes="ccscsccccccsccccccc" />
    </g>
    <use
       x="0"
       y="0"
       xlink:href="#text4510"
       id="use4523"
       transform="translate(0,35.166089)"
       width="100%"
       height="100%" />
    <use
       x="0"
       y="0"
       xlink:href="#use4523"
       id="use4525"
       transform="translate(0,34.676601)"
       width="100%"
       height="100%" />
    <path
       sodipodi:nodetypes="csccc"
       inkscape:connector-curvature="0"
       id="path4527"
       d="m 108.06146,87.022062 c 4.97093,2.952939 5.86754,9.536477 5.86754,18.289538 v 20.98066 86.38828 c 0,0 0.002,12.69227 -7.74873,16.20231"
       style="opacity:1;fill:none;fill-rule:evenodd;stroke:#a0a0a0;stroke-width:1.29999995;stroke-linecap:round;stroke-linejoin:round;stroke-miterlimit:4;stroke-dasharray:none;stroke-opacity:1" />
  </g>
</svg>
