<?xml version="1.0" encoding="UTF-8" standalone="no"?>
<!-- Created with Inkscape (http://www.inkscape.org/) -->

<svg
   xmlns:dc="http://purl.org/dc/elements/1.1/"
   xmlns:cc="http://creativecommons.org/ns#"
   xmlns:rdf="http://www.w3.org/1999/02/22-rdf-syntax-ns#"
   xmlns:svg="http://www.w3.org/2000/svg"
   xmlns="http://www.w3.org/2000/svg"
   xmlns:sodipodi="http://sodipodi.sourceforge.net/DTD/sodipodi-0.dtd"
   xmlns:inkscape="http://www.inkscape.org/namespaces/inkscape"
   width="69.778259"
   height="261.12573"
   viewBox="0 0 18.462164 69.089516"
   version="1.1"
   id="svg8"
   inkscape:version="0.92.0 r"
   sodipodi:docname="Brace.svg">
  <defs
     id="defs2" />
  <sodipodi:namedview
     id="base"
     pagecolor="#ffffff"
     bordercolor="#666666"
     borderopacity="1.0"
     inkscape:pageopacity="0.0"
     inkscape:pageshadow="2"
     inkscape:zoom="1.979899"
     inkscape:cx="49.407105"
     inkscape:cy="124.73158"
     inkscape:document-units="mm"
     inkscape:current-layer="layer1"
     showgrid="false"
     fit-margin-top="0"
     fit-margin-left="0"
     fit-margin-right="0"
     fit-margin-bottom="0"
     units="px"
     inkscape:window-width="1920"
     inkscape:window-height="1136"
     inkscape:window-x="1280"
     inkscape:window-y="27"
     inkscape:window-maximized="1" />
  <metadata
     id="metadata5">
    <rdf:RDF>
      <cc:Work
         rdf:about="">
        <dc:format>image/svg+xml</dc:format>
        <dc:type
           rdf:resource="http://purl.org/dc/dcmitype/StillImage" />
        <dc:title></dc:title>
      </cc:Work>
    </rdf:RDF>
  </metadata>
  <g
     inkscape:label="Ebene 1"
     inkscape:groupmode="layer"
     id="layer1"
     transform="translate(-87.276967,-64.865913)">
    <g
       aria-label="}"
       style="color:#000000;font-style:normal;font-variant:normal;font-weight:normal;font-stretch:normal;font-size:82.05405426px;line-height:102.56756592px;font-family:'Linux Libertine';-inkscape-font-specification:'Linux Libertine';text-indent:0;text-align:start;text-decoration:none;text-decoration-line:none;letter-spacing:0px;word-spacing:0.04102698px;text-transform:none;writing-mode:lr-tb;direction:ltr;baseline-shift:baseline;text-anchor:start;display:inline;overflow:visible;visibility:visible;fill:#c8c8c8;fill-opacity:1;fill-rule:nonzero;stroke:none;stroke-width:4.10270262px;stroke-linecap:butt;stroke-linejoin:miter;stroke-opacity:1;marker:none;enable-background:accumulate"
       id="text4487">
      <path
         d="m 105.49297,99.902994 q -4.18476,0.492326 -5.579678,5.333516 -1.394919,4.75913 -1.394919,12.55427 0,7.05665 -0.820541,10.42086 -0.82054,3.36422 -3.118054,4.51298 -2.215459,1.23081 -6.974594,1.23081 -0.328217,0 -0.328217,-0.49233 0,-0.49232 0.328217,-0.49232 3.118054,0 4.841189,-2.29752 1.723135,-2.21545 1.887243,-6.40021 0.164108,-10.0106 0.656433,-14.03124 0.492324,-4.10271 2.215459,-6.48228 1.723135,-2.46162 5.907892,-4.430914 -4.266811,-1.887243 -5.989946,-4.184757 -1.641081,-2.379567 -2.133405,-6.400216 -0.492325,-4.102703 -0.656433,-14.195351 -0.164108,-4.184757 -1.887243,-6.400217 -1.723135,-2.297513 -4.841189,-2.297513 -0.328217,0 -0.328217,-0.492324 0,-0.492325 0.328217,-0.492325 4.677081,0 6.89254,1.230811 2.21546,1.148757 3.118054,4.512973 0.902595,3.282162 0.902595,10.338811 0,7.713081 1.394919,12.55427 1.394918,4.841189 5.579678,5.333514 0.24616,0 0.24616,0.574378 0,0.492324 -0.24616,0.492324 z"
         style="font-style:normal;font-variant:normal;font-weight:300;font-stretch:normal;font-family:'Cormorant Garamond';-inkscape-font-specification:'Cormorant Garamond Light';stroke-width:4.10270262px;fill:#c8c8c8;fill-opacity:1"
         id="path4489"
         inkscape:connector-curvature="0" />
    </g>
  </g>
</svg>
