<?xml version="1.0" encoding="UTF-8" standalone="no"?>
<!-- Created with Inkscape (http://www.inkscape.org/) -->

<svg
   xmlns:dc="http://purl.org/dc/elements/1.1/"
   xmlns:cc="http://creativecommons.org/ns#"
   xmlns:rdf="http://www.w3.org/1999/02/22-rdf-syntax-ns#"
   xmlns:svg="http://www.w3.org/2000/svg"
   xmlns="http://www.w3.org/2000/svg"
   xmlns:sodipodi="http://sodipodi.sourceforge.net/DTD/sodipodi-0.dtd"
   xmlns:inkscape="http://www.inkscape.org/namespaces/inkscape"
   version="1.1"
   id="svg2"
   xml:space="preserve"
   width="16"
   height="16"
   viewBox="0 0 15.999999 15.999999"
   sodipodi:docname="LotusFavicon.svg"
   inkscape:version="0.92.0 r"
   inkscape:export-filename="/media/enc/dev/structuredSutras/assets/LotusFavicon.svg.png"
   inkscape:export-xdpi="96"
   inkscape:export-ydpi="96"><metadata
     id="metadata8"><rdf:RDF><cc:Work
         rdf:about=""><dc:format>image/svg+xml</dc:format><dc:type
           rdf:resource="http://purl.org/dc/dcmitype/StillImage" /><dc:title></dc:title></cc:Work></rdf:RDF></metadata><defs
     id="defs6" /><sodipodi:namedview
     pagecolor="#ffffff"
     bordercolor="#666666"
     borderopacity="1"
     objecttolerance="10"
     gridtolerance="10"
     guidetolerance="10"
     inkscape:pageopacity="0"
     inkscape:pageshadow="2"
     inkscape:window-width="1920"
     inkscape:window-height="1136"
     id="namedview4"
     showgrid="false"
     inkscape:zoom="14.159999"
     inkscape:cx="9.2024848"
     inkscape:cy="8.489128"
     inkscape:window-x="1280"
     inkscape:window-y="27"
     inkscape:window-maximized="1"
     inkscape:current-layer="g10"
     fit-margin-top="0"
     fit-margin-left="0"
     fit-margin-right="0"
     fit-margin-bottom="0" /><g
     id="g10"
     inkscape:groupmode="layer"
     inkscape:label="056038"
     transform="matrix(1.3333333,0,0,-1.3333333,-299.176,73.057199)"><path
       style="fill:#1e120d;fill-opacity:1;fill-rule:nonzero;stroke:none;stroke-width:0.31183395"
       d="m 230.44855,52.677192 c -0.0445,-0.004 -0.0856,-0.02446 -0.11831,-0.06897 -0.69976,-0.949846 -0.69548,-2.195308 -0.66554,-3.32633 0.004,-0.152941 0.01,-0.315567 0.0146,-0.473233 -0.003,0.0071 -0.006,0.01437 -0.008,0.02147 -0.31932,0.778337 -0.9372,2.405936 -1.95597,2.495433 -0.0808,0.0072 -0.17161,-0.02909 -0.19687,-0.113284 -0.2819,-0.937061 0.39054,-2.050815 0.80029,-2.850357 0.0789,-0.154075 0.1621,-0.307363 0.24347,-0.460899 -0.11052,0.114166 -0.22129,0.226366 -0.333,0.332085 -0.57284,0.542279 -2.12551,1.914195 -3.0317,1.29271 -0.092,-0.06299 -0.097,-0.175665 -0.0461,-0.268591 0.10228,-0.186477 0.32211,-0.322889 0.48145,-0.455418 0.43782,-0.364222 0.88166,-0.72144 1.32103,-1.084415 0.66615,-0.550838 1.57535,-1.171409 2.2168,-1.909831 -0.54245,0.347351 -1.12917,0.641186 -1.60881,0.880688 -1.00411,0.501429 -2.05883,0.714104 -3.02302,0.01279 -0.0658,-0.04771 -0.10058,-0.124165 -0.0713,-0.205554 0.0833,-0.233252 0.27613,-0.266274 0.48693,-0.326147 0.59311,-0.16839 1.20469,-0.265295 1.79655,-0.444911 1.18996,-0.36048 2.45465,-0.889933 3.49306,-1.586882 0.0428,-0.02873 0.0803,-0.03588 0.11237,-0.03197 0.0486,-0.03041 0.10244,-0.04614 0.14526,-0.03517 0.0345,-0.0068 0.0681,-0.0065 0.095,0.01096 0.99007,0.640819 2.16393,1.150864 3.28248,1.511968 0.59061,0.190842 1.19385,0.335389 1.79974,0.467294 0.14906,0.03243 0.54811,0.04619 0.61484,0.232049 0.0374,0.103217 -0.0398,0.241608 -0.12242,0.30148 -0.90838,0.657034 -1.85072,0.625787 -2.85264,0.184542 -0.49561,-0.218246 -0.96449,-0.508501 -1.42472,-0.799836 0.59341,0.59047 1.31879,1.100235 1.88927,1.571351 0.4322,0.357362 0.86871,0.709718 1.30185,1.066144 0.17774,0.146561 0.43709,0.296199 0.54997,0.502009 0.0505,0.09168 -0.0497,0.250985 -0.12242,0.300567 -0.89403,0.61213 -2.16777,-0.402785 -2.80422,-0.95286 -0.0712,-0.06154 -0.14217,-0.130513 -0.21332,-0.195962 0.43293,0.80286 1.01733,1.838583 0.74776,2.732963 -0.0518,0.172444 -0.22437,0.291492 -0.40243,0.2759 -0.86191,-0.07567 -1.44279,-1.536644 -1.74904,-2.31957 0.001,0.0108 0.002,0.02163 0.003,0.03243 0.10104,1.073956 0.30264,2.490669 -0.29234,3.467021 -0.0568,0.09308 -0.22011,0.230462 -0.35356,0.218345 z"
       id="path770"
       inkscape:connector-curvature="0" /></g></svg>