<?xml version="1.0" encoding="UTF-8" standalone="no"?>
<!-- Created with Inkscape (http://www.inkscape.org/) -->

<svg
   xmlns:dc="http://purl.org/dc/elements/1.1/"
   xmlns:cc="http://creativecommons.org/ns#"
   xmlns:rdf="http://www.w3.org/1999/02/22-rdf-syntax-ns#"
   xmlns:svg="http://www.w3.org/2000/svg"
   xmlns="http://www.w3.org/2000/svg"
   xmlns:sodipodi="http://sodipodi.sourceforge.net/DTD/sodipodi-0.dtd"
   xmlns:inkscape="http://www.inkscape.org/namespaces/inkscape"
   version="1.1"
   id="svg2"
   xml:space="preserve"
   width="517.76666"
   height="36.831673"
   viewBox="0 0 517.76664 36.831671"
   sodipodi:docname="TextEndOrnaments_2.svg"
   inkscape:version="0.92.0 r"><metadata
     id="metadata8"><rdf:RDF><cc:Work
         rdf:about=""><dc:format>image/svg+xml</dc:format><dc:type
           rdf:resource="http://purl.org/dc/dcmitype/StillImage" /><dc:title /></cc:Work></rdf:RDF></metadata><defs
     id="defs6" /><sodipodi:namedview
     pagecolor="#ffffff"
     bordercolor="#666666"
     borderopacity="1"
     objecttolerance="10"
     gridtolerance="10"
     guidetolerance="10"
     inkscape:pageopacity="0"
     inkscape:pageshadow="2"
     inkscape:window-width="1920"
     inkscape:window-height="1136"
     id="namedview4"
     showgrid="false"
     inkscape:zoom="1.7699999"
     inkscape:cx="216.5055"
     inkscape:cy="-6.5791425"
     inkscape:window-x="1280"
     inkscape:window-y="27"
     inkscape:window-maximized="1"
     inkscape:current-layer="g10"
     fit-margin-top="0"
     fit-margin-left="0"
     fit-margin-right="0"
     fit-margin-bottom="0" /><g
     id="g10"
     inkscape:groupmode="layer"
     inkscape:label="056038"
     transform="matrix(1.3333333,0,0,-1.3333333,-53.983138,87.523487)"><path
       inkscape:connector-curvature="0"
       id="path550"
       style="fill:#1e120d;fill-opacity:1;fill-rule:nonzero;stroke:none;stroke-width:0.82538593"
       d="m 56.375087,44.162655 c 19.133,-0.509584 38.36,-0.217323 57.505003,-0.227542 24.978,-0.01363 49.956,-0.02861 74.934,-0.0327 8.878,-0.0014 17.762,-0.08516 26.635,0.14579 0.627,0.01635 1.258,0.876784 0.408,0.899265 -19.145,0.510266 -38.39,0.147834 -57.546,0.136934 -24.992,-0.01362 -49.985,-0.01907 -74.977003,-0.05995 -8.881,-0.01499 -17.779,0.03951 -26.655,-0.191435 -0.468,-0.01226 -0.938,-0.65333 -0.304,-0.670361" /><path
       inkscape:connector-curvature="0"
       id="path574"
       style="fill:#1e120d;fill-opacity:1;fill-rule:nonzero;stroke:none;stroke-width:0.82538593"
       d="m 410.22804,44.917584 c -19.134,0.509584 -38.36,0.217323 -57.505,0.227542 -24.978,0.01363 -49.956,0.02861 -74.934,0.0327 -8.878,0.0014 -17.762,0.08516 -26.635,-0.14579 -0.627,-0.01635 -1.258,-0.876784 -0.408,-0.899266 19.145,-0.510265 38.39,-0.147833 57.546,-0.136933 24.992,0.01362 49.985,0.01908 74.977,0.05995 8.881,0.01499 17.779,-0.03951 26.655,0.191434 0.468,0.01226 0.938,0.653331 0.304,0.670362" /><path
       style="fill:#1e120d;fill-opacity:1;fill-rule:nonzero;stroke:none;stroke-width:0.50900739"
       d="m 234.16216,56.848495 c -0.0726,-0.0066 -0.13967,-0.03993 -0.19311,-0.112588 -1.14222,-1.550437 -1.13523,-3.583408 -1.08637,-5.429578 0.007,-0.249645 0.0164,-0.515101 0.0239,-0.772459 -0.005,0.01159 -0.009,0.02346 -0.0134,0.03504 -0.52122,1.270483 -1.5298,3.927217 -3.19273,4.073302 -0.13183,0.01171 -0.28013,-0.04748 -0.32136,-0.184913 -0.46014,-1.529567 0.63749,-3.347551 1.30632,-4.652645 0.12885,-0.251498 0.26459,-0.50171 0.39742,-0.752327 -0.1804,0.186353 -0.36122,0.369498 -0.54356,0.542063 -0.93505,0.885163 -3.46948,3.124546 -4.94865,2.110094 -0.15016,-0.10282 -0.15828,-0.286738 -0.0753,-0.438422 0.16695,-0.304387 0.52578,-0.527052 0.78588,-0.74338 0.71464,-0.594521 1.43913,-1.177609 2.15632,-1.770093 1.08735,-0.899134 2.57144,-1.912094 3.61848,-3.117422 -0.88544,0.566981 -1.84315,1.046609 -2.62606,1.437548 -1.63901,0.818484 -3.36064,1.165635 -4.93449,0.02088 -0.1074,-0.07788 -0.16417,-0.202676 -0.11632,-0.335527 0.13591,-0.380737 0.45074,-0.43464 0.79483,-0.53237 0.96813,-0.274864 1.96641,-0.433042 2.93251,-0.72623 1.94237,-0.588413 4.00673,-1.45264 5.70172,-2.590271 0.0699,-0.04689 0.13108,-0.05857 0.18343,-0.05219 0.0793,-0.04964 0.16721,-0.07532 0.2371,-0.05741 0.0563,-0.01106 0.1112,-0.01054 0.15509,0.01789 1.6161,1.04601 3.53219,1.878559 5.358,2.46799 0.96406,0.311512 1.94873,0.547455 2.93773,0.762765 0.24331,0.05294 0.89467,0.0754 1.0036,0.378774 0.0611,0.168481 -0.0649,0.394377 -0.19983,0.492106 -1.48274,1.072479 -3.02093,1.021475 -4.65637,0.301229 -0.80898,-0.356243 -1.57434,-0.830027 -2.32558,-1.305574 0.96863,0.963825 2.15267,1.795916 3.08387,2.56492 0.70548,0.583323 1.418,1.158474 2.12501,1.740269 0.29013,0.239233 0.71346,0.483487 0.89772,0.819432 0.0825,0.149648 -0.0812,0.409683 -0.19983,0.490616 -1.45932,0.999181 -3.53845,-0.657467 -4.57734,-1.555356 -0.11621,-0.100451 -0.23206,-0.213037 -0.3482,-0.319869 0.70668,1.31051 1.6606,3.001123 1.22058,4.461022 -0.0845,0.281481 -0.36625,0.475803 -0.65689,0.450352 -1.4069,-0.123511 -2.35508,-2.508267 -2.85497,-3.78624 0.002,0.01763 0.004,0.03531 0.005,0.05294 0.16492,1.753022 0.49399,4.065526 -0.47719,5.659228 -0.0928,0.151939 -0.35929,0.376185 -0.57711,0.356405 z"
       id="path770"
       inkscape:connector-curvature="0" /></g></svg>